<svg width="20" height="20" viewBox="0 0 20 20" fill="none" xmlns="http://www.w3.org/2000/svg">
<g filter="url(#filter0_d_409_1441)">
<path d="M9.59069 2.90066L9.59064 2.90067C8.96645 2.96186 8.57355 3.04071 8.07319 3.20586L8.10453 3.30082L8.07319 3.20586C6.0639 3.86905 4.54587 5.533 4.05063 7.61729C3.93217 8.11089 3.9 8.40493 3.9 8.99819C3.9 9.68555 3.95687 10.1048 4.13667 10.7182C4.16796 10.8282 4.2258 10.9991 4.27837 11.145C4.30479 11.2183 4.33025 11.2863 4.3508 11.3382C4.36104 11.364 4.37037 11.3867 4.37818 11.4043C4.38205 11.413 4.38595 11.4214 4.38971 11.4287L4.38978 11.4289C4.39225 11.4337 4.39869 11.4463 4.40806 11.4575L4.41388 11.4645L4.41417 11.4642C4.44205 11.4921 4.47569 11.4936 4.48094 11.4939C4.48111 11.4939 4.48124 11.4939 4.48135 11.4939C4.49163 11.4944 4.50011 11.4934 4.50429 11.4928C4.51339 11.4914 4.52198 11.4892 4.52793 11.4876C4.54076 11.484 4.55617 11.4788 4.57188 11.4731C4.60394 11.4615 4.64486 11.4452 4.68542 11.4281C4.72606 11.4111 4.76769 11.3927 4.80121 11.3768C4.81786 11.3689 4.83348 11.3611 4.84633 11.3541C4.8527 11.3507 4.85936 11.3469 4.86554 11.3429C4.86956 11.3404 4.87803 11.3349 4.88656 11.3271C4.9122 11.304 4.91884 11.2757 4.92089 11.2646C4.92356 11.2502 4.9233 11.2371 4.92273 11.2283C4.92156 11.2101 4.91767 11.191 4.91344 11.1741C4.90468 11.1391 4.89022 11.0969 4.87331 11.0552L4.87271 11.0538L4.87269 11.0538C4.79307 10.8664 4.67353 10.4845 4.61868 10.2509C4.51158 9.77962 4.48793 9.55695 4.49033 8.97436C4.49274 8.47521 4.49991 8.37257 4.55421 8.07035L4.55423 8.07025C4.80924 6.64269 5.55208 5.43108 6.70258 4.5688L6.7026 4.56879C8.55722 3.17842 11.1196 3.1093 13.0505 4.39979L13.0506 4.39985C13.2092 4.50555 13.3456 4.60394 13.4386 4.67752C13.4578 4.69266 13.4747 4.70645 13.4893 4.71879C13.446 4.74896 13.3905 4.78725 13.3308 4.82814L13.3305 4.82838C13.2036 4.91614 13.1119 4.98611 13.0622 5.05533C13.0348 5.09345 13.0167 5.13555 13.0138 5.18333C13.0109 5.22886 13.0225 5.27016 13.0374 5.30635C13.0485 5.33533 13.0648 5.36309 13.0819 5.38567C13.0964 5.40469 13.1214 5.43353 13.155 5.44934C13.1652 5.45433 13.1776 5.45884 13.185 5.46156L13.1855 5.46176C13.1981 5.46636 13.2147 5.47215 13.2344 5.47888C13.274 5.49238 13.3283 5.51029 13.3932 5.53127C13.5232 5.57326 13.6969 5.62794 13.8839 5.68502C13.884 5.68505 13.8841 5.68508 13.8842 5.68511L13.9134 5.58946C14.6432 5.81736 14.728 5.82948 14.8032 5.72523C14.842 5.6719 14.8493 5.58462 14.8638 4.93002L9.59069 2.90066ZM9.59069 2.90066C9.69804 2.89019 9.94381 2.89304 10.19 2.90238C10.4378 2.91179 10.6984 2.92827 10.8381 2.94715L10.8386 2.94722C11.9326 3.09998 13.0289 3.57513 13.8487 4.25418L13.8491 4.25452C13.9004 4.29745 13.9483 4.33588 13.9842 4.36326C13.9877 4.36594 13.991 4.36848 13.9942 4.37089C14.0061 4.36337 14.0197 4.35458 14.035 4.34466C14.0914 4.30794 14.1676 4.25694 14.2493 4.20044L14.2495 4.20034C14.413 4.08774 14.5315 4.01304 14.6257 3.98645C14.6775 3.97184 14.7294 3.96924 14.7808 3.98709C14.8299 4.00413 14.8673 4.03606 14.8977 4.06852C14.8978 4.06869 14.898 4.06885 14.8981 4.06901L14.953 4.12624L14.9817 4.15622L14.9807 4.19774L14.9638 4.93225M9.59069 2.90066L14.9638 4.93225M14.9638 4.93225L14.9638 4.93233C14.9565 5.25852 14.951 5.44712 14.9423 5.56077C14.9338 5.67082 14.9217 5.7321 14.8843 5.78371L14.9638 4.93225ZM13.975 5.09617L14.1279 5.14503L14.1281 5.14509L14.3595 5.21849L14.3689 5.09975C14.3689 5.09964 14.3689 5.09952 14.3689 5.09941C14.3759 5.00332 14.3802 4.89491 14.3812 4.82181L14.1659 4.96674L14.1657 4.96691L13.975 5.09617Z" fill="#FFBB00" stroke="#FFBB00" stroke-width="0.2"/>
<path d="M16.056 9.83738L16.0561 9.83686C16.0826 9.65625 16.0972 9.34069 16.0996 9.03307C16.102 8.72582 16.0925 8.41502 16.0683 8.24455L16.0683 8.24444C15.9922 7.71197 15.8644 7.21224 15.7037 6.79921C15.7037 6.7992 15.7037 6.79919 15.7037 6.79918L16.056 9.83738ZM16.056 9.83738C15.7482 11.859 14.5311 13.5576 12.7412 14.4551M16.056 9.83738L12.7412 14.4551M7.28926 14.4675L7.33354 14.3778L7.28926 14.4675ZM7.28926 14.4675C9.01678 15.3226 11.0184 15.3202 12.7412 14.4551M7.28926 14.4675L12.7412 14.4551M14.9846 6.0053L14.9848 6.00521L4.63457 12.7257L4.73457 12.7268L4.63457 12.7256L4.63457 12.7257C4.63936 12.2684 4.64445 12.0083 4.67388 11.8648C4.68873 11.7924 4.714 11.7252 4.7706 11.6823C4.82644 11.6399 4.89234 11.6376 4.93822 11.6376C4.95487 11.6376 4.97423 11.6412 4.98737 11.6438C5.00361 11.647 5.02354 11.6515 5.0462 11.657C5.09167 11.668 5.15129 11.6837 5.22054 11.7027C5.35921 11.7409 5.53892 11.7933 5.72625 11.8505L5.72629 11.8505C6.08675 11.9607 6.29441 12.0265 6.40992 12.0851C6.46907 12.1151 6.51825 12.1499 6.54933 12.1997C6.58143 12.2511 6.585 12.304 6.585 12.3461C6.585 12.379 6.58015 12.4143 6.56284 12.4512C6.54621 12.4866 6.52111 12.5171 6.49061 12.5462C6.43218 12.6018 6.33543 12.6687 6.18608 12.7666C6.18601 12.7667 6.18595 12.7667 6.18588 12.7668L6.05719 12.8521L6.14888 12.9451L6.14894 12.9451C7.23987 14.0527 8.89979 14.6441 10.5003 14.4964L10.5004 14.4964C12.8534 14.2797 14.813 12.5935 15.3654 10.3056L15.3654 10.3053C15.4846 9.81693 15.5129 9.57524 15.5129 8.99803C15.5129 8.44208 15.4869 8.20237 15.3822 7.74536C15.2846 7.32439 15.072 6.75627 14.8829 6.41102C14.8828 6.41093 14.8828 6.41084 14.8827 6.41075L14.7861 6.2367L14.739 6.15196L14.8222 6.10227L14.9846 6.0053ZM4.72282 13.4908C4.7226 13.4906 4.72238 13.4905 4.72216 13.4903L4.78548 13.4129L4.72341 13.4913L4.72282 13.4908ZM5.73188 13.3661L5.73172 13.3659L7.28918 14.4674C6.69048 14.1718 6.22144 13.8384 5.73188 13.3661ZM5.52419 12.4052L5.52376 12.4051C5.40701 12.368 5.29143 12.3341 5.22732 12.3172V12.5449V12.7105L5.39322 12.5982C5.47905 12.5386 5.5608 12.4818 5.62371 12.4371C5.59619 12.428 5.56331 12.4175 5.52419 12.4052ZM5.56614 13.0662L5.62274 13.1486L5.55529 13.1949L5.49655 13.138L5.56614 13.0662Z" fill="#FFBB00" stroke="#FFBB00" stroke-width="0.2"/>
<mask id="path-3-outside-1_409_1441" maskUnits="userSpaceOnUse" x="4.7334" y="5.9375" width="10" height="6" fill="black">
<rect fill="white" x="4.7334" y="5.9375" width="10" height="6"/>
<path d="M7.24866 6.89843C6.98925 6.98086 6.79772 7.14572 6.68619 7.38573C6.62801 7.50938 6.61831 7.56272 6.61831 7.73727C6.61831 7.92395 6.62558 7.96032 6.69832 8.10821C6.74438 8.20034 6.7759 8.27549 6.77105 8.28034C6.76862 8.28277 6.71529 8.30701 6.65468 8.33125C6.49466 8.40156 6.30314 8.60279 6.21101 8.79674L6.13343 8.9616L6.12615 9.65741L6.11888 10.3556H6.31283H6.50921V9.73499C6.50921 9.31799 6.51891 9.0804 6.5383 9.01252C6.57709 8.87917 6.77832 8.67795 6.91166 8.63916C7.04743 8.60036 7.91052 8.60036 8.04629 8.63916C8.17963 8.67795 8.38086 8.87917 8.41965 9.01252C8.47541 9.19919 8.48753 9.19192 8.12387 9.19192C7.84991 9.19192 7.79173 9.19919 7.74809 9.23314C7.71172 9.26465 7.66081 9.40769 7.56141 9.74954C7.48867 10.0089 7.40624 10.295 7.37958 10.3847L7.33109 10.5496H6.53346H5.7334V10.7435V10.9375H10.0004H14.2673V10.7435V10.5496H13.9158C13.7218 10.5496 13.5643 10.5423 13.5643 10.5302C13.5643 10.5205 13.6346 10.2659 13.7218 9.96289C13.8091 9.65983 13.8794 9.3883 13.8794 9.36163C13.8794 9.33254 13.8528 9.28405 13.8188 9.25253C13.7606 9.19192 13.7534 9.19192 13.3388 9.19192H12.9145L12.9 9.061C12.8636 8.77492 12.6212 8.44035 12.3763 8.33125C12.3157 8.30701 12.2623 8.28277 12.2599 8.28034C12.2551 8.27549 12.2866 8.20034 12.3327 8.10821C12.4054 7.96032 12.4127 7.92395 12.4127 7.73727C12.4127 7.56272 12.403 7.50938 12.3448 7.38573C12.0248 6.69962 11.0792 6.69962 10.7592 7.38573C10.701 7.50938 10.6913 7.56272 10.6913 7.73727C10.6913 7.92395 10.6986 7.96032 10.7713 8.10821C10.8174 8.20034 10.8489 8.27549 10.8441 8.28034C10.8416 8.28277 10.7883 8.30701 10.7277 8.33125C10.5677 8.40156 10.3762 8.60279 10.284 8.79674L10.2064 8.9616L10.1992 9.65741L10.1919 10.3556H10.3858H10.5822V9.73499C10.5822 9.31799 10.5919 9.0804 10.6113 9.01252C10.6501 8.87917 10.8513 8.67795 10.9847 8.63916C11.1204 8.60036 11.9835 8.60036 12.1193 8.63916C12.2526 8.67795 12.4539 8.87917 12.4927 9.01252C12.5484 9.19919 12.5605 9.19192 12.1969 9.19192C11.9229 9.19192 11.8647 9.19919 11.8211 9.23314C11.7847 9.26465 11.7338 9.40769 11.6344 9.74954C11.5617 10.0089 11.4793 10.295 11.4526 10.3847L11.4041 10.5496H10.4489C9.92279 10.5496 9.49124 10.5423 9.49124 10.5302C9.49124 10.5205 9.56155 10.2659 9.64883 9.96289C9.73611 9.65983 9.80641 9.3883 9.80641 9.36163C9.80641 9.33254 9.77975 9.28405 9.7458 9.25253C9.68762 9.19192 9.68034 9.19192 9.26577 9.19192H8.8415L8.82695 9.061C8.79058 8.77492 8.54814 8.44035 8.30328 8.33125C8.24267 8.30701 8.18933 8.28277 8.18691 8.28034C8.18206 8.27549 8.21357 8.20034 8.25964 8.10821C8.33237 7.96032 8.33964 7.92395 8.33964 7.73727C8.33964 7.56272 8.32995 7.50938 8.27176 7.38573C8.19903 7.22815 8.07538 7.08511 7.93719 6.99783C7.74809 6.87661 7.45473 6.83297 7.24866 6.89843ZM7.75536 7.34209C7.8887 7.43665 7.95174 7.56756 7.95174 7.7494C7.95174 8.02335 7.76506 8.21003 7.49352 8.21003C7.14926 8.21003 6.92863 7.92395 7.01591 7.59666C7.04986 7.47301 7.19774 7.313 7.31412 7.27906C7.44988 7.23784 7.64626 7.26451 7.75536 7.34209ZM11.8284 7.34209C11.9617 7.43665 12.0248 7.56756 12.0248 7.7494C12.0248 8.02335 11.8381 8.21003 11.5665 8.21003C11.2223 8.21003 11.0017 7.92395 11.0889 7.59666C11.1229 7.47301 11.2708 7.313 11.3871 7.27906C11.5229 7.23784 11.7193 7.26451 11.8284 7.34209ZM9.34578 9.59922C9.34578 9.61619 9.23668 10.0089 9.12515 10.3847L9.07667 10.5496H8.41238C8.04629 10.5496 7.74566 10.5399 7.74566 10.5302C7.74566 10.5132 7.85476 10.1205 7.96628 9.74226L8.01477 9.57983H8.67906C9.04515 9.57983 9.34578 9.58953 9.34578 9.59922ZM13.4188 9.59922C13.4188 9.61619 13.3097 10.0089 13.1982 10.3847L13.1497 10.5496H12.4854C12.1193 10.5496 11.8187 10.5399 11.8187 10.5302C11.8187 10.5132 11.9278 10.1205 12.0393 9.74226L12.0878 9.57983H12.7521C13.1182 9.57983 13.4188 9.58953 13.4188 9.59922Z"/>
</mask>
<path d="M7.24866 6.89843C6.98925 6.98086 6.79772 7.14572 6.68619 7.38573C6.62801 7.50938 6.61831 7.56272 6.61831 7.73727C6.61831 7.92395 6.62558 7.96032 6.69832 8.10821C6.74438 8.20034 6.7759 8.27549 6.77105 8.28034C6.76862 8.28277 6.71529 8.30701 6.65468 8.33125C6.49466 8.40156 6.30314 8.60279 6.21101 8.79674L6.13343 8.9616L6.12615 9.65741L6.11888 10.3556H6.31283H6.50921V9.73499C6.50921 9.31799 6.51891 9.0804 6.5383 9.01252C6.57709 8.87917 6.77832 8.67795 6.91166 8.63916C7.04743 8.60036 7.91052 8.60036 8.04629 8.63916C8.17963 8.67795 8.38086 8.87917 8.41965 9.01252C8.47541 9.19919 8.48753 9.19192 8.12387 9.19192C7.84991 9.19192 7.79173 9.19919 7.74809 9.23314C7.71172 9.26465 7.66081 9.40769 7.56141 9.74954C7.48867 10.0089 7.40624 10.295 7.37958 10.3847L7.33109 10.5496H6.53346H5.7334V10.7435V10.9375H10.0004H14.2673V10.7435V10.5496H13.9158C13.7218 10.5496 13.5643 10.5423 13.5643 10.5302C13.5643 10.5205 13.6346 10.2659 13.7218 9.96289C13.8091 9.65983 13.8794 9.3883 13.8794 9.36163C13.8794 9.33254 13.8528 9.28405 13.8188 9.25253C13.7606 9.19192 13.7534 9.19192 13.3388 9.19192H12.9145L12.9 9.061C12.8636 8.77492 12.6212 8.44035 12.3763 8.33125C12.3157 8.30701 12.2623 8.28277 12.2599 8.28034C12.2551 8.27549 12.2866 8.20034 12.3327 8.10821C12.4054 7.96032 12.4127 7.92395 12.4127 7.73727C12.4127 7.56272 12.403 7.50938 12.3448 7.38573C12.0248 6.69962 11.0792 6.69962 10.7592 7.38573C10.701 7.50938 10.6913 7.56272 10.6913 7.73727C10.6913 7.92395 10.6986 7.96032 10.7713 8.10821C10.8174 8.20034 10.8489 8.27549 10.8441 8.28034C10.8416 8.28277 10.7883 8.30701 10.7277 8.33125C10.5677 8.40156 10.3762 8.60279 10.284 8.79674L10.2064 8.9616L10.1992 9.65741L10.1919 10.3556H10.3858H10.5822V9.73499C10.5822 9.31799 10.5919 9.0804 10.6113 9.01252C10.6501 8.87917 10.8513 8.67795 10.9847 8.63916C11.1204 8.60036 11.9835 8.60036 12.1193 8.63916C12.2526 8.67795 12.4539 8.87917 12.4927 9.01252C12.5484 9.19919 12.5605 9.19192 12.1969 9.19192C11.9229 9.19192 11.8647 9.19919 11.8211 9.23314C11.7847 9.26465 11.7338 9.40769 11.6344 9.74954C11.5617 10.0089 11.4793 10.295 11.4526 10.3847L11.4041 10.5496H10.4489C9.92279 10.5496 9.49124 10.5423 9.49124 10.5302C9.49124 10.5205 9.56155 10.2659 9.64883 9.96289C9.73611 9.65983 9.80641 9.3883 9.80641 9.36163C9.80641 9.33254 9.77975 9.28405 9.7458 9.25253C9.68762 9.19192 9.68034 9.19192 9.26577 9.19192H8.8415L8.82695 9.061C8.79058 8.77492 8.54814 8.44035 8.30328 8.33125C8.24267 8.30701 8.18933 8.28277 8.18691 8.28034C8.18206 8.27549 8.21357 8.20034 8.25964 8.10821C8.33237 7.96032 8.33964 7.92395 8.33964 7.73727C8.33964 7.56272 8.32995 7.50938 8.27176 7.38573C8.19903 7.22815 8.07538 7.08511 7.93719 6.99783C7.74809 6.87661 7.45473 6.83297 7.24866 6.89843ZM7.75536 7.34209C7.8887 7.43665 7.95174 7.56756 7.95174 7.7494C7.95174 8.02335 7.76506 8.21003 7.49352 8.21003C7.14926 8.21003 6.92863 7.92395 7.01591 7.59666C7.04986 7.47301 7.19774 7.313 7.31412 7.27906C7.44988 7.23784 7.64626 7.26451 7.75536 7.34209ZM11.8284 7.34209C11.9617 7.43665 12.0248 7.56756 12.0248 7.7494C12.0248 8.02335 11.8381 8.21003 11.5665 8.21003C11.2223 8.21003 11.0017 7.92395 11.0889 7.59666C11.1229 7.47301 11.2708 7.313 11.3871 7.27906C11.5229 7.23784 11.7193 7.26451 11.8284 7.34209ZM9.34578 9.59922C9.34578 9.61619 9.23668 10.0089 9.12515 10.3847L9.07667 10.5496H8.41238C8.04629 10.5496 7.74566 10.5399 7.74566 10.5302C7.74566 10.5132 7.85476 10.1205 7.96628 9.74226L8.01477 9.57983H8.67906C9.04515 9.57983 9.34578 9.58953 9.34578 9.59922ZM13.4188 9.59922C13.4188 9.61619 13.3097 10.0089 13.1982 10.3847L13.1497 10.5496H12.4854C12.1193 10.5496 11.8187 10.5399 11.8187 10.5302C11.8187 10.5132 11.9278 10.1205 12.0393 9.74226L12.0878 9.57983H12.7521C13.1182 9.57983 13.4188 9.58953 13.4188 9.59922Z" fill="#FFBB00"/>
<path d="M7.24866 6.89843C6.98925 6.98086 6.79772 7.14572 6.68619 7.38573C6.62801 7.50938 6.61831 7.56272 6.61831 7.73727C6.61831 7.92395 6.62558 7.96032 6.69832 8.10821C6.74438 8.20034 6.7759 8.27549 6.77105 8.28034C6.76862 8.28277 6.71529 8.30701 6.65468 8.33125C6.49466 8.40156 6.30314 8.60279 6.21101 8.79674L6.13343 8.9616L6.12615 9.65741L6.11888 10.3556H6.31283H6.50921V9.73499C6.50921 9.31799 6.51891 9.0804 6.5383 9.01252C6.57709 8.87917 6.77832 8.67795 6.91166 8.63916C7.04743 8.60036 7.91052 8.60036 8.04629 8.63916C8.17963 8.67795 8.38086 8.87917 8.41965 9.01252C8.47541 9.19919 8.48753 9.19192 8.12387 9.19192C7.84991 9.19192 7.79173 9.19919 7.74809 9.23314C7.71172 9.26465 7.66081 9.40769 7.56141 9.74954C7.48867 10.0089 7.40624 10.295 7.37958 10.3847L7.33109 10.5496H6.53346H5.7334V10.7435V10.9375H10.0004H14.2673V10.7435V10.5496H13.9158C13.7218 10.5496 13.5643 10.5423 13.5643 10.5302C13.5643 10.5205 13.6346 10.2659 13.7218 9.96289C13.8091 9.65983 13.8794 9.3883 13.8794 9.36163C13.8794 9.33254 13.8528 9.28405 13.8188 9.25253C13.7606 9.19192 13.7534 9.19192 13.3388 9.19192H12.9145L12.9 9.061C12.8636 8.77492 12.6212 8.44035 12.3763 8.33125C12.3157 8.30701 12.2623 8.28277 12.2599 8.28034C12.2551 8.27549 12.2866 8.20034 12.3327 8.10821C12.4054 7.96032 12.4127 7.92395 12.4127 7.73727C12.4127 7.56272 12.403 7.50938 12.3448 7.38573C12.0248 6.69962 11.0792 6.69962 10.7592 7.38573C10.701 7.50938 10.6913 7.56272 10.6913 7.73727C10.6913 7.92395 10.6986 7.96032 10.7713 8.10821C10.8174 8.20034 10.8489 8.27549 10.8441 8.28034C10.8416 8.28277 10.7883 8.30701 10.7277 8.33125C10.5677 8.40156 10.3762 8.60279 10.284 8.79674L10.2064 8.9616L10.1992 9.65741L10.1919 10.3556H10.3858H10.5822V9.73499C10.5822 9.31799 10.5919 9.0804 10.6113 9.01252C10.6501 8.87917 10.8513 8.67795 10.9847 8.63916C11.1204 8.60036 11.9835 8.60036 12.1193 8.63916C12.2526 8.67795 12.4539 8.87917 12.4927 9.01252C12.5484 9.19919 12.5605 9.19192 12.1969 9.19192C11.9229 9.19192 11.8647 9.19919 11.8211 9.23314C11.7847 9.26465 11.7338 9.40769 11.6344 9.74954C11.5617 10.0089 11.4793 10.295 11.4526 10.3847L11.4041 10.5496H10.4489C9.92279 10.5496 9.49124 10.5423 9.49124 10.5302C9.49124 10.5205 9.56155 10.2659 9.64883 9.96289C9.73611 9.65983 9.80641 9.3883 9.80641 9.36163C9.80641 9.33254 9.77975 9.28405 9.7458 9.25253C9.68762 9.19192 9.68034 9.19192 9.26577 9.19192H8.8415L8.82695 9.061C8.79058 8.77492 8.54814 8.44035 8.30328 8.33125C8.24267 8.30701 8.18933 8.28277 8.18691 8.28034C8.18206 8.27549 8.21357 8.20034 8.25964 8.10821C8.33237 7.96032 8.33964 7.92395 8.33964 7.73727C8.33964 7.56272 8.32995 7.50938 8.27176 7.38573C8.19903 7.22815 8.07538 7.08511 7.93719 6.99783C7.74809 6.87661 7.45473 6.83297 7.24866 6.89843ZM7.75536 7.34209C7.8887 7.43665 7.95174 7.56756 7.95174 7.7494C7.95174 8.02335 7.76506 8.21003 7.49352 8.21003C7.14926 8.21003 6.92863 7.92395 7.01591 7.59666C7.04986 7.47301 7.19774 7.313 7.31412 7.27906C7.44988 7.23784 7.64626 7.26451 7.75536 7.34209ZM11.8284 7.34209C11.9617 7.43665 12.0248 7.56756 12.0248 7.7494C12.0248 8.02335 11.8381 8.21003 11.5665 8.21003C11.2223 8.21003 11.0017 7.92395 11.0889 7.59666C11.1229 7.47301 11.2708 7.313 11.3871 7.27906C11.5229 7.23784 11.7193 7.26451 11.8284 7.34209ZM9.34578 9.59922C9.34578 9.61619 9.23668 10.0089 9.12515 10.3847L9.07667 10.5496H8.41238C8.04629 10.5496 7.74566 10.5399 7.74566 10.5302C7.74566 10.5132 7.85476 10.1205 7.96628 9.74226L8.01477 9.57983H8.67906C9.04515 9.57983 9.34578 9.58953 9.34578 9.59922ZM13.4188 9.59922C13.4188 9.61619 13.3097 10.0089 13.1982 10.3847L13.1497 10.5496H12.4854C12.1193 10.5496 11.8187 10.5399 11.8187 10.5302C11.8187 10.5132 11.9278 10.1205 12.0393 9.74226L12.0878 9.57983H12.7521C13.1182 9.57983 13.4188 9.58953 13.4188 9.59922Z" stroke="#FFBB00" stroke-width="0.2" mask="url(#path-3-outside-1_409_1441)"/>
</g>
<defs>
<filter id="filter0_d_409_1441" x="0.800049" y="0.793945" width="18.3999" height="18.4126" filterUnits="userSpaceOnUse" color-interpolation-filters="sRGB">
<feFlood flood-opacity="0" result="BackgroundImageFix"/>
<feColorMatrix in="SourceAlpha" type="matrix" values="0 0 0 0 0 0 0 0 0 0 0 0 0 0 0 0 0 0 127 0" result="hardAlpha"/>
<feOffset dy="1"/>
<feGaussianBlur stdDeviation="1.5"/>
<feComposite in2="hardAlpha" operator="out"/>
<feColorMatrix type="matrix" values="0 0 0 0 1 0 0 0 0 0.815755 0 0 0 0 0.309082 0 0 0 0.6 0"/>
<feBlend mode="normal" in2="BackgroundImageFix" result="effect1_dropShadow_409_1441"/>
<feBlend mode="normal" in="SourceGraphic" in2="effect1_dropShadow_409_1441" result="shape"/>
</filter>
</defs>
</svg>
