<svg width="20" height="20" viewBox="0 0 20 20" fill="none" xmlns="http://www.w3.org/2000/svg">
<g filter="url(#filter0_d_409_1307)">
<path d="M13.2309 2.59092C13.2311 2.59089 13.2312 2.59086 13.2314 2.59083L13.2306 2.59097L13.2309 2.59092ZM13.3288 3.93953V5.28868H14.2203H15.2119H15.3119V5.38868V10.0666V14.6446H15.6059H16H16.1V14.7446V15.126V15.5073V15.6073H16H10H4H3.9V15.5073V15.126V14.7446V14.6446H4H4.39407H4.68827L4.69322 10.8241L4.69322 10.8241L4.70085 6.9012L4.70104 6.80216L4.80007 6.80139L5.78397 6.79377L5.78423 6.79377L6.67119 6.78919V5.59461V4.30054V4.2245L6.74446 4.20418L7.3489 4.03657C7.34901 4.03654 7.34912 4.0365 7.34923 4.03647C7.68059 3.94217 9.12435 3.53547 10.5578 3.13391C11.2747 2.9318 11.9281 2.74812 12.4038 2.61464C12.6417 2.5479 12.8352 2.49371 12.97 2.45603L13.1266 2.41239L13.1321 2.41087C13.1567 2.40404 13.1771 2.39838 13.1868 2.39594L13.1868 2.3959C13.2224 2.38699 13.253 2.39918 13.2715 2.41312C13.2871 2.42491 13.2953 2.43828 13.2984 2.44387C13.3051 2.45557 13.3079 2.46607 13.3086 2.46891L13.3086 2.46899C13.3107 2.47681 13.3117 2.48399 13.3121 2.48733C13.3131 2.49551 13.3139 2.50541 13.3145 2.51543C13.3158 2.53622 13.317 2.56587 13.318 2.60268C13.3202 2.67668 13.3221 2.78343 13.3237 2.91469C13.3269 3.1774 13.3288 3.54012 13.3288 3.93953ZM12.3466 3.63682C12.3226 3.64337 12.295 3.65091 12.2642 3.65939C12.141 3.69322 11.9659 3.7417 11.7552 3.80027C11.3338 3.91739 10.7703 4.07476 10.1954 4.23572C9.04504 4.5578 7.85119 4.89374 7.6589 4.95067L7.65831 4.95084L7.6339 4.95791V5.88444V6.78868H8.52542H9.51695H9.61695V6.88868V10.8166V14.6446H10.9915H12.3661V9.12597C12.3661 6.8861 12.3642 5.48171 12.3594 4.63766C12.357 4.21551 12.354 3.9341 12.35 3.75859C12.3489 3.70973 12.3478 3.66944 12.3466 3.63682ZM5.7021 7.76208C5.68849 7.76244 5.67597 7.7628 5.66454 7.76316C5.66352 7.80984 5.66252 7.87416 5.66157 7.9546C5.65943 8.13536 5.65752 8.39608 5.65593 8.71746C5.65275 9.36015 5.65085 10.2447 5.65085 11.2158V14.6446H7.15254H8.65424V11.198V7.75139H7.17034C6.73456 7.75139 6.33643 7.7533 6.04643 7.75647C5.90136 7.75806 5.78373 7.75996 5.7021 7.76208ZM13.839 14.6446H14.3492V10.448V6.25139H13.839H13.3288V10.448V14.6446H13.839Z" fill="#FFBB00" stroke="#FFBB00" stroke-width="0.2"/>
<path d="M10.4848 7.70301L10.3828 7.70507V7.60303V6.82506V6.04709V5.94505L10.4848 5.94712L10.8611 5.95474L10.8611 5.95474L11.2348 5.96237L11.3328 5.96437V6.06235V6.82506V7.58777V7.68575L11.2348 7.68775L10.8611 7.69538L10.8611 7.69538L10.4848 7.70301Z" fill="#FFBB00" stroke="#FFBB00" stroke-width="0.2"/>
<path d="M10.4848 10.4999L10.3828 10.5019V10.3999V9.63465V8.87194V8.77194H10.4828H10.8641H11.2455H11.3462L11.3455 8.87261L11.3404 9.62769L11.3404 9.62803L11.3328 10.3857L11.3318 10.4826L11.2348 10.4846L10.8611 10.4923L10.8611 10.4923L10.4848 10.4999Z" fill="#FFBB00" stroke="#FFBB00" stroke-width="0.2"/>
<path d="M10.4828 13.2938H10.3828V13.1938V12.4311V11.6684V11.5684H10.4828H10.8641H11.2455H11.3455V11.6684V12.4311V13.1938V13.2938H11.2455H10.8641H10.4828Z" fill="#FFBB00" stroke="#FFBB00" stroke-width="0.2"/>
<path d="M6.77112 10.497H6.67112V10.397V9.63426V8.87155V8.77155H6.77112H7.15247H7.53383H7.63383V8.87155V9.63426V10.397V10.497H7.53383H7.15247H6.77112Z" fill="#FFBB00" stroke="#FFBB00" stroke-width="0.2"/>
<path d="M6.77112 13.2938H6.67112V13.1938V12.4311V11.6684V11.5684H6.77112H7.15247H7.53383H7.63383V11.6684V12.4311V13.1938V13.2938H7.53383H7.15247H6.77112Z" fill="#FFBB00" stroke="#FFBB00" stroke-width="0.2"/>
</g>
<defs>
<filter id="filter0_d_409_1307" x="0.800049" y="0.292969" width="18.3999" height="19.4146" filterUnits="userSpaceOnUse" color-interpolation-filters="sRGB">
<feFlood flood-opacity="0" result="BackgroundImageFix"/>
<feColorMatrix in="SourceAlpha" type="matrix" values="0 0 0 0 0 0 0 0 0 0 0 0 0 0 0 0 0 0 127 0" result="hardAlpha"/>
<feOffset dy="1"/>
<feGaussianBlur stdDeviation="1.5"/>
<feComposite in2="hardAlpha" operator="out"/>
<feColorMatrix type="matrix" values="0 0 0 0 1 0 0 0 0 0.815755 0 0 0 0 0.309082 0 0 0 0.6 0"/>
<feBlend mode="normal" in2="BackgroundImageFix" result="effect1_dropShadow_409_1307"/>
<feBlend mode="normal" in="SourceGraphic" in2="effect1_dropShadow_409_1307" result="shape"/>
</filter>
</defs>
</svg>
