<svg width="19" height="20" viewBox="0 0 19 20" fill="none" xmlns="http://www.w3.org/2000/svg">
<g filter="url(#filter0_d_409_1316)">
<path d="M15.8333 10.4585C15.8333 9.5485 15.2325 8.78433 14.4042 8.52183C14.5675 8.23016 14.6667 7.89766 14.6667 7.54183C14.6667 6.63183 14.0658 5.86766 13.2375 5.60516C13.4008 5.3135 13.5 4.981 13.5 4.62516C13.5 3.49933 12.5842 2.5835 11.4583 2.5835H7.375C6.24917 2.5835 5.33333 3.49933 5.33333 4.62516C5.33333 4.981 5.4325 5.3135 5.59583 5.60516C4.77333 5.86766 4.16667 6.63183 4.16667 7.54183C4.16667 7.89766 4.26583 8.23016 4.42917 8.52183C3.60667 8.78433 3 9.5485 3 10.4585C3 11.1935 3.39083 11.8235 3.97417 12.1852C3.72917 12.5177 3.58333 12.9318 3.58333 13.3752C3.58333 14.501 4.49917 15.4168 5.625 15.4168H13.2083C14.3342 15.4168 15.25 14.501 15.25 13.3752C15.25 12.9318 15.1042 12.5177 14.8592 12.1852C15.4425 11.8235 15.8333 11.1935 15.8333 10.4585ZM7.375 3.75016H11.4583C11.9425 3.75016 12.3333 4.141 12.3333 4.62516C12.3333 5.10933 11.9425 5.50016 11.4583 5.50016H7.375C6.89083 5.50016 6.5 5.10933 6.5 4.62516C6.5 4.141 6.89083 3.75016 7.375 3.75016ZM6.20833 6.66683H12.625C13.1092 6.66683 13.5 7.05766 13.5 7.54183C13.5 8.026 13.1092 8.41683 12.625 8.41683H6.20833C5.72417 8.41683 5.33333 8.026 5.33333 7.54183C5.33333 7.05766 5.72417 6.66683 6.20833 6.66683ZM4.75 13.3752C4.75 12.891 5.14083 12.5002 5.625 12.5002H7.66667V14.2502H5.625C5.14083 14.2502 4.75 13.8593 4.75 13.3752ZM13.2083 14.2502H11.1667V12.5002H13.2083C13.6925 12.5002 14.0833 12.891 14.0833 13.3752C14.0833 13.8593 13.6925 14.2502 13.2083 14.2502ZM13.7917 11.3335H11.0617C10.8167 10.6568 10.175 10.1668 9.41667 10.1668C8.65833 10.1668 8.01667 10.6568 7.77167 11.3335H5.04167C4.5575 11.3335 4.16667 10.9427 4.16667 10.4585C4.16667 9.97433 4.5575 9.5835 5.04167 9.5835H13.7917C14.2758 9.5835 14.6667 9.97433 14.6667 10.4585C14.6667 10.9427 14.2758 11.3335 13.7917 11.3335Z" fill="#FFBB00"/>
</g>
<defs>
<filter id="filter0_d_409_1316" x="0" y="0.583496" width="18.8334" height="18.8335" filterUnits="userSpaceOnUse" color-interpolation-filters="sRGB">
<feFlood flood-opacity="0" result="BackgroundImageFix"/>
<feColorMatrix in="SourceAlpha" type="matrix" values="0 0 0 0 0 0 0 0 0 0 0 0 0 0 0 0 0 0 127 0" result="hardAlpha"/>
<feOffset dy="1"/>
<feGaussianBlur stdDeviation="1.5"/>
<feComposite in2="hardAlpha" operator="out"/>
<feColorMatrix type="matrix" values="0 0 0 0 1 0 0 0 0 0.815755 0 0 0 0 0.309082 0 0 0 0.6 0"/>
<feBlend mode="normal" in2="BackgroundImageFix" result="effect1_dropShadow_409_1316"/>
<feBlend mode="normal" in="SourceGraphic" in2="effect1_dropShadow_409_1316" result="shape"/>
</filter>
</defs>
</svg>
